# xmcd
#
# Track frame offsets:
# 150
# 16914
# 33428
# 50043
# 65264
# 75525
# 89804
# 115537
# 129558
# 144384
# 160267
# 176436
# 189378
# 200914
# 213371
# 226802
# 242025
# 260006
# 272351
# 286172
# 299224
# 310430
#
# Disc length: 4299 seconds
#
#
# Revision: 0
# Processed by: cddbd v1.5.1PL2 Copyright (c) Steve Scherf et al.
# Submitted via: FreeRIP 2.945 
#
DISCID=4610c916
DTITLE=Duduca e Dalvan - Dose Dupla - Vol. 2
DYEAR=1900
DGENRE=Sertanejo
TTITLE0=Massa falida
TTITLE1=Meus pedaços
TTITLE2=Vaqueiro apaixonado
TTITLE3=Tudo pelos ares
TTITLE4=Receita de amor
TTITLE5=Ironia (Angústia)
TTITLE6=Mensageiro da paz
TTITLE7=Sou eu
TTITLE8=Conselho de pai
TTITLE9=Onde estão meus amigos
TTITLE10=Maria, maria
TTITLE11=Foi ela
TTITLE12=Palhaço do amor
TTITLE13=Para sempre amigo
TTITLE14=Uma carta ao criador
TTITLE15=Uma dor e uma saudade
TTITLE16=Pirâmide do amor
TTITLE17=Tribunal de Deus
TTITLE18=Amor proibido
TTITLE19=Filho covarde
TTITLE20=Triste romance
TTITLE21=Presente da natureza
EXTD=
EXTT0=
EXTT1=
EXTT2=
EXTT3=
EXTT4=
EXTT5=
EXTT6=
EXTT7=
EXTT8=
EXTT9=
EXTT10=
EXTT11=
EXTT12=
EXTT13=
EXTT14=
EXTT15=
EXTT16=
EXTT17=
EXTT18=
EXTT19=
EXTT20=
EXTT21=
PLAYORDER=
